<mxfile host="app.diagrams.net" agent="Mozilla/5.0 (Windows NT 10.0; Win64; x64) AppleWebKit/537.36 (KHTML, like Gecko) Chrome/126.0.0.0 Safari/537.36" version="24.7.15">
  <diagram id="C5RBs43oDa-KdzZeNtuy" name="Page-1">
    <mxGraphModel dx="1434" dy="780" grid="1" gridSize="10" guides="1" tooltips="1" connect="1" arrows="1" fold="1" page="1" pageScale="1" pageWidth="827" pageHeight="1169" math="0" shadow="0">
      <root>
        <mxCell id="WIyWlLk6GJQsqaUBKTNV-0" />
        <mxCell id="WIyWlLk6GJQsqaUBKTNV-1" parent="WIyWlLk6GJQsqaUBKTNV-0" />
        <mxCell id="76kuQYNqCpiM6wkeOXWu-0" value="UserInfo" style="swimlane;fontStyle=0;childLayout=stackLayout;horizontal=1;startSize=40;horizontalStack=0;resizeParent=1;resizeParentMax=0;resizeLast=0;collapsible=1;marginBottom=0;whiteSpace=wrap;html=1;" vertex="1" parent="WIyWlLk6GJQsqaUBKTNV-1">
          <mxGeometry x="40" y="80" width="280" height="290" as="geometry" />
        </mxCell>
        <mxCell id="76kuQYNqCpiM6wkeOXWu-2" value="private:&lt;div&gt;name : std::string&lt;/div&gt;&lt;div&gt;id&amp;nbsp; &amp;nbsp; &amp;nbsp; &amp;nbsp;: int&lt;/div&gt;&lt;div&gt;level&amp;nbsp; : int&lt;/div&gt;" style="text;strokeColor=none;fillColor=none;align=left;verticalAlign=middle;spacingLeft=4;spacingRight=4;overflow=hidden;points=[[0,0.5],[1,0.5]];portConstraint=eastwest;rotatable=0;whiteSpace=wrap;html=1;" vertex="1" parent="76kuQYNqCpiM6wkeOXWu-0">
          <mxGeometry y="40" width="280" height="120" as="geometry" />
        </mxCell>
        <mxCell id="76kuQYNqCpiM6wkeOXWu-3" value="public:&lt;div&gt;GetName();&lt;/div&gt;&lt;div&gt;GetId();&lt;/div&gt;&lt;div&gt;GetLevel();&lt;/div&gt;" style="text;strokeColor=default;fillColor=none;align=left;verticalAlign=middle;spacingLeft=4;spacingRight=4;overflow=hidden;points=[[0,0.5],[1,0.5]];portConstraint=eastwest;rotatable=0;whiteSpace=wrap;html=1;" vertex="1" parent="76kuQYNqCpiM6wkeOXWu-0">
          <mxGeometry y="160" width="280" height="130" as="geometry" />
        </mxCell>
        <mxCell id="76kuQYNqCpiM6wkeOXWu-4" value="GameRoom" style="swimlane;fontStyle=0;childLayout=stackLayout;horizontal=1;startSize=40;horizontalStack=0;resizeParent=1;resizeParentMax=0;resizeLast=0;collapsible=1;marginBottom=0;whiteSpace=wrap;html=1;" vertex="1" parent="WIyWlLk6GJQsqaUBKTNV-1">
          <mxGeometry x="400" y="80" width="280" height="280" as="geometry" />
        </mxCell>
        <mxCell id="76kuQYNqCpiM6wkeOXWu-6" value="private:&lt;div&gt;maxCount&amp;nbsp; : int&lt;span style=&quot;white-space: pre;&quot;&gt;&#x9;&lt;/span&gt;// 최대 인원수&lt;/div&gt;&lt;div&gt;userCount&amp;nbsp; : int&amp;nbsp;&lt;span style=&quot;white-space: pre;&quot;&gt;&#x9;&lt;/span&gt;// 현재 인원수&lt;/div&gt;&lt;div&gt;UserInfo users[maxCount]&lt;/div&gt;&lt;div&gt;vector&amp;lt;UserInfo&amp;gt; users;&lt;/div&gt;&lt;div&gt;list&amp;lt;UserInfo&amp;gt; users;&lt;/div&gt;" style="text;strokeColor=none;fillColor=none;align=left;verticalAlign=middle;spacingLeft=4;spacingRight=4;overflow=hidden;points=[[0,0.5],[1,0.5]];portConstraint=eastwest;rotatable=0;whiteSpace=wrap;html=1;" vertex="1" parent="76kuQYNqCpiM6wkeOXWu-4">
          <mxGeometry y="40" width="280" height="120" as="geometry" />
        </mxCell>
        <mxCell id="76kuQYNqCpiM6wkeOXWu-7" value="public:&lt;div&gt;void AddPlayer();&lt;/div&gt;&lt;div&gt;void DeletePlayer();&lt;/div&gt;&lt;div&gt;void BanPlayer();&lt;/div&gt;&lt;div&gt;void ShowListPlayer();&lt;/div&gt;&lt;div&gt;&lt;br&gt;&lt;/div&gt;&lt;div&gt;bool isEmpty();&lt;/div&gt;&lt;div&gt;bool isFull();&lt;/div&gt;" style="text;strokeColor=default;fillColor=none;align=left;verticalAlign=middle;spacingLeft=4;spacingRight=4;overflow=hidden;points=[[0,0.5],[1,0.5]];portConstraint=eastwest;rotatable=0;whiteSpace=wrap;html=1;" vertex="1" parent="76kuQYNqCpiM6wkeOXWu-4">
          <mxGeometry y="160" width="280" height="120" as="geometry" />
        </mxCell>
        <mxCell id="76kuQYNqCpiM6wkeOXWu-9" value="" style="endArrow=classic;html=1;rounded=0;entryX=-0.007;entryY=0.008;entryDx=0;entryDy=0;entryPerimeter=0;exitX=1;exitY=0.007;exitDx=0;exitDy=0;exitPerimeter=0;" edge="1" parent="WIyWlLk6GJQsqaUBKTNV-1" source="76kuQYNqCpiM6wkeOXWu-3" target="76kuQYNqCpiM6wkeOXWu-7">
          <mxGeometry width="50" height="50" relative="1" as="geometry">
            <mxPoint x="390" y="430" as="sourcePoint" />
            <mxPoint x="440" y="380" as="targetPoint" />
          </mxGeometry>
        </mxCell>
        <mxCell id="76kuQYNqCpiM6wkeOXWu-10" value="Lobby" style="swimlane;fontStyle=0;childLayout=stackLayout;horizontal=1;startSize=30;horizontalStack=0;resizeParent=1;resizeParentMax=0;resizeLast=0;collapsible=1;marginBottom=0;whiteSpace=wrap;html=1;" vertex="1" parent="WIyWlLk6GJQsqaUBKTNV-1">
          <mxGeometry x="290" y="500" width="140" height="120" as="geometry" />
        </mxCell>
        <mxCell id="76kuQYNqCpiM6wkeOXWu-11" value="Item 1" style="text;strokeColor=none;fillColor=none;align=left;verticalAlign=middle;spacingLeft=4;spacingRight=4;overflow=hidden;points=[[0,0.5],[1,0.5]];portConstraint=eastwest;rotatable=0;whiteSpace=wrap;html=1;" vertex="1" parent="76kuQYNqCpiM6wkeOXWu-10">
          <mxGeometry y="30" width="140" height="30" as="geometry" />
        </mxCell>
        <mxCell id="76kuQYNqCpiM6wkeOXWu-12" value="Item 2" style="text;strokeColor=none;fillColor=none;align=left;verticalAlign=middle;spacingLeft=4;spacingRight=4;overflow=hidden;points=[[0,0.5],[1,0.5]];portConstraint=eastwest;rotatable=0;whiteSpace=wrap;html=1;" vertex="1" parent="76kuQYNqCpiM6wkeOXWu-10">
          <mxGeometry y="60" width="140" height="30" as="geometry" />
        </mxCell>
        <mxCell id="76kuQYNqCpiM6wkeOXWu-13" value="Item 3" style="text;strokeColor=none;fillColor=none;align=left;verticalAlign=middle;spacingLeft=4;spacingRight=4;overflow=hidden;points=[[0,0.5],[1,0.5]];portConstraint=eastwest;rotatable=0;whiteSpace=wrap;html=1;" vertex="1" parent="76kuQYNqCpiM6wkeOXWu-10">
          <mxGeometry y="90" width="140" height="30" as="geometry" />
        </mxCell>
        <mxCell id="76kuQYNqCpiM6wkeOXWu-14" value="" style="endArrow=classic;html=1;rounded=0;entryX=0.5;entryY=0;entryDx=0;entryDy=0;exitX=0.539;exitY=1.017;exitDx=0;exitDy=0;exitPerimeter=0;" edge="1" parent="WIyWlLk6GJQsqaUBKTNV-1" source="76kuQYNqCpiM6wkeOXWu-7" target="76kuQYNqCpiM6wkeOXWu-10">
          <mxGeometry width="50" height="50" relative="1" as="geometry">
            <mxPoint x="390" y="430" as="sourcePoint" />
            <mxPoint x="440" y="380" as="targetPoint" />
          </mxGeometry>
        </mxCell>
      </root>
    </mxGraphModel>
  </diagram>
</mxfile>
